<svg width="71" height="33" viewBox="0 0 71 33" fill="none" xmlns="http://www.w3.org/2000/svg">
<path d="M20.5105 9.71559L17.4407 9.76673L-8.08918 0.254883L20.7663 16.6193L25.4732 12.7328L20.5105 9.71559Z" fill="#36B37E"/>
<path d="M20.5107 9.71504L70.1892 0.612305L45.3755 24.6987L20.5107 9.71504Z" fill="#172B4D"/>
<path d="M-8.08918 0.254883L41.4869 28.4324L30.3336 30.478L3.01301 32.4724L-8.08918 0.254883Z" fill="white" stroke="#36B37E" stroke-width="0.633632" stroke-miterlimit="10" stroke-linejoin="round"/>
<path d="M41.4871 28.4319L70.189 0.612305L49.4684 30.9888L41.4871 28.4319Z" fill="white" stroke="#36B37E" stroke-width="0.633632" stroke-miterlimit="10" stroke-linejoin="round"/>
<path d="M20.7665 16.619L33.6083 6.0332L34.9385 7.10712L30.8967 22.3977L20.7665 16.619Z" fill="white" stroke="#36B37E" stroke-width="0.633632" stroke-miterlimit="10" stroke-linejoin="round"/>
<path d="M34.9383 7.10742L46.5521 23.5742L41.4871 28.4324L30.8965 22.398L34.9383 7.10742Z" fill="white" stroke="#36B37E" stroke-width="0.633632" stroke-miterlimit="10" stroke-linejoin="round"/>
<path d="M49.4685 30.9886L30.3339 30.4772L41.4872 28.4316L49.4685 30.9886Z" fill="white" stroke="#36B37E" stroke-width="0.633632" stroke-miterlimit="10" stroke-linejoin="round"/>
</svg>
