<svg width="67" height="45" viewBox="0 0 67 45" fill="none" xmlns="http://www.w3.org/2000/svg">
<path d="M41.043 25.0712L33.5371 25.3165L30.103 19.2324L22.8914 19.5759L26.2764 25.5128L19.1139 25.7581L22.4499 31.7931L29.6615 31.6459L37.1183 31.4496L40.7486 37.73L48.4508 37.6809L52.2773 44.1575H60.3719L56.3982 37.5828L52.5226 31.1062L44.7224 31.3025L41.043 25.0712Z" fill="#C5E9DA"/>
<path d="M37.4616 18.9371L33.9294 12.9512L26.6688 13.3437L30.1028 19.2315L37.4616 18.9371Z" fill="#36B37E"/>
<path d="M48.7453 24.7769L45.0168 18.5947L37.4619 18.9382L41.0431 25.0713L48.7453 24.7769Z" fill="#36B37E"/>
<path d="M52.7678 18.2503L48.9903 12.1172L41.3862 12.5097L45.0165 18.5938L52.7678 18.2503Z" fill="#36B37E"/>
<path d="M56.6434 24.531L48.7451 24.7764L52.5225 31.1058L60.5681 30.9586L68.8099 30.7623L64.7381 24.2857L60.7643 17.9072L52.7678 18.2507L56.6434 24.531Z" fill="#36B37E"/>
<path d="M15.876 19.8703L22.8913 19.5759L19.6044 13.6881L26.6688 13.3446L23.3329 7.50586L16.3666 7.94745L9.54748 8.38903L12.6872 14.0806L5.91716 14.424L-0.656654 14.7675L2.3359 20.4591L9.00783 20.1647L12.1476 26.0034L19.1138 25.7581L15.876 19.8703Z" fill="#172B4D"/>
<path d="M5.37747 26.1992L8.46814 32.087L15.3854 31.9398L12.1475 26.0029L5.37747 26.1992Z" fill="#36B37E"/>
<path d="M-0.0679493 3.28557L2.87555 8.82994L9.54749 8.38835L6.45681 2.79492L-0.0679493 3.28557Z" fill="#36B37E"/>
<path d="M33.9295 12.9516L41.3863 12.51L37.8051 6.57313L34.3219 0.734375L27.1104 1.27409L20.046 1.81381L23.3329 7.50537L30.4954 7.06378L33.9295 12.9516Z" fill="#36B37E"/>
<path d="M53.0132 5.5918L45.3111 6.08245L48.9904 12.1175L56.8398 11.7249L53.0132 5.5918Z" fill="#36B37E"/>
<path d="M68.9081 17.5635L64.8853 11.2832L56.8397 11.7248L60.7644 17.907L68.9081 17.5635Z" fill="#36B37E"/>
<path d="M15.3855 31.9392L18.6724 38.0233L25.8349 37.9251L22.4499 31.792L15.3855 31.9392Z" fill="#36B37E"/>
</svg>
